<svg xmlns="http://www.w3.org/2000/svg" width="298" height="56" viewBox="0 0 298 56">
  <g id="Group_28" data-name="Group 28" transform="translate(-426.971 -15.089)">
    <rect id="Rectangle_3" data-name="Rectangle 3" width="298" height="56" transform="translate(426.971 15.089)" fill="#000079"/>
    <rect id="Rectangle_4" data-name="Rectangle 4" width="169.566" height="53.333" transform="translate(428.478 16.419)" fill="#fff"/>
    <path id="Path_2" data-name="Path 2" d="M19.2-51.841h7.149c4.785,0,7.725-.865,10.319-3A12.872,12.872,0,0,0,41.107-65.1a13.611,13.611,0,0,0-3.8-9.916c-2.652-2.652-5.88-3.69-11.242-3.69H7.67v38.453H19.2Zm0-9.4v-7.84h5.65c3.055,0,4.727,1.384,4.727,3.92s-1.672,3.92-4.727,3.92ZM78.7-78.706H46.3v38.453H79.617v-10.2H57.826v-5.131H76.1v-8.82H57.826v-4.67H78.7Z" transform="translate(426.02 102.608)" fill="#000079"/>
    <path id="Path_3" data-name="Path 3" d="M35.758-68.2c-.231-3.344-.807-5.189-2.364-7.149-2.537-3.344-7.091-5.131-13.144-5.131-9.4,0-15.8,4.785-15.8,11.876A10.339,10.339,0,0,0,6.7-62.143c1.672,2.018,4.036,3.4,8.3,4.727l7.61,2.364c2.364.749,3.228,1.441,3.228,2.594,0,1.73-2.075,2.94-5.016,2.94-3.632,0-5.707-1.614-5.823-4.5H3.186c.288,3.8,1.153,6.053,3.113,8.244,3.171,3.517,8.244,5.477,14.3,5.477,10.2,0,17.007-5.3,17.007-13.2,0-6-3.286-9.166-12.107-11.7l-7.322-2.133c-1.557-.461-2.191-1.038-2.191-2.018,0-1.326,1.73-2.306,4.036-2.306A4.406,4.406,0,0,1,24.69-68.2Z" transform="translate(554.851 103.513)" fill="#000079"/>
    <rect id="Rectangle_1" data-name="Rectangle 1" width="10.748" height="35.665" transform="translate(526.19 25.713)" fill="#e20807"/>
    <rect id="Rectangle_2" data-name="Rectangle 2" width="10.748" height="35.665" transform="translate(549.396 38.171) rotate(90)" fill="#e20807"/>
    <path id="Path_1" data-name="Path 1" d="M684.316,421.189l4.454,3.543-6.377,10.628h-1.62s-1.316-3.745.81-8.907S684.316,421.189,684.316,421.189Z" transform="translate(-131.526 -399.292)" fill="#000079"/>
    <path id="Path_4" data-name="Path 4" d="M19.84-78.706H7.906v38.453H19.84ZM64.23-40.253V-78.706H52.7v6.169c0,2.537,0,5.3.058,8.186,0,2.248,0,3.459.115,5.592L41.113-78.706H29.871v38.453H41.4v-5.823c0-3.113,0-6-.058-8.705,0-3.459,0-3.978-.115-5.88L53.1-40.253Zm44.333,0V-78.706H97.033v6.169c0,2.537,0,5.3.058,8.186,0,2.248,0,3.459.115,5.592L85.446-78.706H74.2v38.453h11.53v-5.823c0-3.113,0-6-.058-8.705,0-3.459,0-3.978-.115-5.88L97.437-40.253Z" transform="translate(599.339 102.12)" fill="#fff"/>
  </g>
</svg>
